HIERARCHY
ROOT Hips
{
  OFFSET -35.2597 29.1586 114.425
  CHANNELS 6 Xposition Yposition Zposition Zrotation Xrotation Yrotation
  JOINT LeftUpLeg
  {
    OFFSET 8.64259 1.95398 -2.38835
    CHANNELS 3 Zrotation Xrotation Yrotation
    JOINT LeftLeg
    {
      OFFSET 43.7702 0 0
      CHANNELS 3 Zrotation Xrotation Yrotation
      JOINT LeftFoot
      {
        OFFSET 40.6238 0 0
        CHANNELS 3 Zrotation Xrotation Yrotation
        JOINT LeftToeBase
        {
          OFFSET 12.7242 0 0
          CHANNELS 3 Zrotation Xrotation Yrotation
          End Site
          {
            OFFSET 0 0 0
          }
        }
      }
    }
  }
  JOINT RightUpLeg
  {
    OFFSET -8.2249 1.95398 -2.59336
    CHANNELS 3 Zrotation Xrotation Yrotation
    JOINT RightLeg
    {
      OFFSET 43.5653 0 0
      CHANNELS 3 Zrotation Xrotation Yrotation
      JOINT RightFoot
      {
        OFFSET 40.6238 0 0
        CHANNELS 3 Zrotation Xrotation Yrotation
        JOINT RightToeBase
        {
          OFFSET 12.7242 0 0
          CHANNELS 3 Zrotation Xrotation Yrotation
          End Site
          {
            OFFSET 0 0 0
          }
        }
      }
    }
  }
  JOINT Spine
  {
    OFFSET 0.165834 0.87714 6.61349
    CHANNELS 3 Zrotation Xrotation Yrotation
    JOINT Spine1
    {
      OFFSET 7.38963 1.71661e-005 0
      CHANNELS 3 Zrotation Xrotation Yrotation
      JOINT Spine2
      {
        OFFSET 11.9445 1.14441e-005 0
        CHANNELS 3 Zrotation Xrotation Yrotation
        JOINT Spine3
        {
          OFFSET 14.7254 4.19617e-005 0
          CHANNELS 3 Zrotation Xrotation Yrotation
          JOINT Spine4
          {
            OFFSET 10.9679 0 0
            CHANNELS 3 Zrotation Xrotation Yrotation
            JOINT RightShoulder
            {
              OFFSET 2.46616 -1.6653 3.69651
              CHANNELS 3 Zrotation Xrotation Yrotation
              JOINT RightArm
              {
                OFFSET 13.0012 0 0
                CHANNELS 3 Zrotation Xrotation Yrotation
                JOINT RightForeArm
                {
                  OFFSET 28.7848 1.62311e-005 0
                  CHANNELS 3 Zrotation Xrotation Yrotation
                  JOINT RightHand
                  {
                    OFFSET 26.5688 1.62095e-005 0
                    CHANNELS 3 Zrotation Xrotation Yrotation
                    End Site
                    {
                      OFFSET 0 0 0
                    }
                  }
                }
              }
            }
            JOINT LeftShoulder
            {
              OFFSET 2.38034 -1.29275 -3.7523
              CHANNELS 3 Zrotation Xrotation Yrotation
              JOINT LeftArm
              {
                OFFSET 16.3182 6.07031e-005 0
                CHANNELS 3 Zrotation Xrotation Yrotation
                JOINT LeftForeArm
                {
                  OFFSET 27.0901 0 0
                  CHANNELS 3 Zrotation Xrotation Yrotation
                  JOINT LeftHand
                  {
                    OFFSET 24.5451 1.51738e-005 0
                    CHANNELS 3 Zrotation Xrotation Yrotation
                    End Site
                    {
                      OFFSET 0 0 0
                    }
                  }
                }
              }
            }
            JOINT Neck
            {
              OFFSET 5.0226 -0.0266342 0
              CHANNELS 3 Zrotation Xrotation Yrotation
              JOINT Head
              {
                OFFSET 6.69364 2.86102e-005 0
                CHANNELS 3 Zrotation Xrotation Yrotation
                End Site
                {
                  OFFSET 0 0 0
                }
              }
            }
          }
        }
      }
    }
  }
}
MOTION
Frames:	13
Frame Time:	0.0416667
-28.1621 99.2265 62.4244 100.492 32.1062 84.4911 -173.564 3.98508 88.9616 -23.6447 6.79184 -1.65586 70.8324 6.79155 1.3857 17.8579 -9.7214 6.26485 177.009 7.08249 90.5781 -22.9709 -17.2702 -2.41613 64.1838 -3.30941 -0.423042 25.4884 0.80252 1.83519 -0.745152 7.65536 -90.271 11.5613 -1.60915 -0.374148 -0.108637 -1.62406 -0.30295 -22.65 -1.42231 -0.840548 -2.63733 -1.4223 -0.840552 93.022 -33.589 -99.7183 44.5604 11.3118 12.9903 -4.45331 -27.2092 -5.04617 -18.6559 2.23272 -19.24 -83.0038 -50.7557 89.3275 -22.2832 -13.1233 -17.0674 11.4112 16.1491 -32.0017 18.7619 -3.01951 -19.9887 -21.715 1.51268 -2.35301 -15.3987 0.657219 6.22339 
-26.0222 99.6239 61.5858 98.9096 33.8179 85.561 -173.872 3.12688 89.4106 -21.5869 7.40416 -1.01092 70.9317 7.43026 0.555158 17.6381 -9.94399 6.38745 176.215 5.72883 90.811 -20.6833 -16.1695 -1.77844 65.0548 -3.33536 -0.153032 24.4518 0.950201 2.66695 -0.65446 7.62165 -90.343 11.6274 -1.46252 -0.531736 -0.0427926 -1.4845 -0.466844 -22.5821 -1.23509 -0.946741 -2.56941 -1.2351 -0.946746 93.7584 -32.6983 -98.535 45.7906 11.0283 13.0277 -4.52559 -28.6627 -5.07197 -17.3523 2.05499 -19.2104 -82.8594 -52.0435 89.661 -24.0463 -11.9292 -18.3392 10.4757 20.5178 -24.5926 16.3186 -2.97418 -21.7583 -22.3436 1.23327 -1.947 -15.2945 0.50406 5.26397 
-24.0045 99.8597 60.9631 97.5866 33.1197 86.2655 -173.786 1.26837 89.5522 -18.8178 6.60103 -0.959293 70.8222 7.83976 0.614555 19.6144 -8.99697 6.86344 175.95 4.91347 90.9114 -19.3875 -16.9431 -1.57145 65.7122 -3.45244 0.0397116 24.1258 0.840728 3.37339 -0.338097 7.63171 -90.3275 11.6084 -0.825988 -0.567043 -0.06242 -0.850129 -0.530143 -22.5978 -0.617361 -0.789061 -2.58519 -0.617378 -0.789064 93.7781 -32.4608 -98.554 45.8876 10.6009 11.357 -4.6575 -31.225 -5.12287 -19.7025 2.85812 -22.0876 -82.6537 -51.9351 89.9557 -27.2838 -10.9548 -20.5405 3.72684 21.249 -6.43096 12.082 -2.19515 -21.1212 -22.9742 1.59614 -2.08901 -15.2315 0.873982 5.17007 
-21.9847 99.8707 60.5384 95.9989 33.2143 87.0573 -173.564 1.06402 89.9714 -17.8826 7.05551 -0.97751 71.7151 8.96989 0.457131 19.4378 -10.2597 8.62543 175.921 4.92312 91.3141 -19.1295 -17.8865 -1.35009 66.4522 -3.85704 -1.36509 22.7064 1.41249 3.36215 -0.23512 7.56067 -90.3274 11.7507 -0.621287 -0.587117 0.079743 -0.646545 -0.559206 -22.455 -0.416141 -0.746695 -2.44232 -0.416155 -0.746701 94.2479 -31.3049 -97.9189 45.8485 9.79211 8.03936 -4.70297 -32.081 -5.14291 -21.42 3.41771 -23.7008 -82.7307 -54.3768 90.0501 -26.0117 -12.7786 -9.30079 2.79148 21.5159 -3.84879 2.77064 -0.545664 -14.4775 -24.4053 1.66295 -0.395209 -14.5955 1.24163 3.74988 
-20.4217 99.7912 60.4221 94.5192 32.3212 87.5105 -173.651 1.02497 89.7837 -17.2944 5.75975 -0.886539 71.9475 9.59784 0.623769 20.803 -9.5014 8.84694 175.902 5.59217 91.3474 -19.7532 -19.0369 -1.30776 67.4444 -4.43891 -1.94065 21.7949 1.76813 3.39305 -0.0179842 7.59496 -90.2922 11.6831 -0.172757 -0.564262 0.0120562 -0.197405 -0.556114 -22.5221 0.00480298 -0.59009 -2.50947 0.00481561 -0.590092 94.7799 -30.0378 -97.1619 45.3373 9.08863 4.581 -4.67823 -31.6191 -5.13242 -24.4898 4.33317 -25.5341 -82.6568 -56.4794 90.3259 -23.6581 -14.3763 2.84961 2.83992 23.0605 -3.89775 -1.2595 -0.107669 -7.53001 -24.5097 1.72555 0.76456 -14.2322 1.46975 3.16957 
-19.6821 99.4705 61.0748 92.0458 32.7853 88.7662 -173.584 4.70791 90.2313 -20.4127 3.48884 -0.836137 73.7973 10.6001 -1.12227 19.1781 -10.887 9.31295 176.177 8.57178 92.0352 -21.746 -18.3859 -1.0072 68.324 -4.97341 -2.53927 21.3253 1.90464 3.5369 0.250736 7.72222 -90.2611 11.4304 0.377087 -0.557884 -0.240613 0.35215 -0.573945 -22.7756 0.527318 -0.418767 -2.76291 0.527312 -0.418771 94.1148 -30.6631 -98.3431 41.4466 9.89157 2.52561 -4.7727 -33.3643 -5.17262 -25.7782 4.59302 -25.5878 -82.6237 -57.0888 90.4203 -20.8154 -15.4022 11.0067 2.76555 20.2413 -3.84634 -4.45157 -0.000147334 -8.3157 -22.343 1.40911 -0.420288 -13.3131 1.11438 2.9717 
-20.3082 98.7598 62.4319 88.0903 35.2481 90.5205 -174.594 13.9773 89.6144 -29.1229 6.95753 -0.453954 72.5508 9.64465 -0.314321 20.9533 -9.73509 9.34396 176.178 14.7461 92.1073 -25.8299 -16.1159 -0.445241 69.4231 -5.48373 -2.89274 21.3055 1.95694 3.41746 0.42578 8.00727 -90.2443 10.861 0.734871 -0.555298 -0.809908 0.709724 -0.587115 -23.3464 0.867792 -0.308756 -3.33373 0.867794 -0.308756 93.3088 -30.2434 -100.078 37.3325 10.919 0.536581 -4.81721 -34.1736 -5.19403 -25.5131 4.14165 -23.8101 -83.1073 -56.1963 89.6684 -18.4523 -15.9419 10.7344 2.69664 18.194 -3.76039 -6.03258 0.0255132 -8.17545 -17.107 0.556035 -1.32539 -12.016 0.393494 1.60381 
-21.7625 97.9012 64.3124 81.7323 36.2142 93.9613 -175.712 24.0579 89.4375 -33.0455 10.7245 -0.392604 73.4041 9.40477 -1.9312 24.9358 -9.03457 12.5691 176.367 23.3705 92.3459 -29.4486 -14.6989 0.133449 69.6168 -5.88003 -2.93816 21.4928 1.84663 3.5111 0.615572 8.36235 -90.2094 10.1519 1.13114 -0.511122 -1.51869 1.10755 -0.560434 -24.0577 1.23246 -0.147493 -4.04503 1.23246 -0.147503 91.9414 -29.8226 -102.949 32.3318 12.1367 -3.67066 -4.93971 -36.3034 -5.25332 -24.5911 3.15035 -19.978 -84.4068 -54.5988 87.6627 -18.2182 -16.0169 2.84683 2.72581 19.3653 -3.78035 -1.35045 -0.10045 -5.48455 -9.86016 -0.592973 -2.30334 -9.7059 -0.506365 0.462184 
-23.4338 96.9004 66.1253 75.3572 35.8397 96.7423 -176.493 32.8024 88.5642 -32.1946 10.3875 -0.922424 70.8047 7.61818 -1.25332 24.0427 -9.01367 11.4858 176.094 32.3271 91.8836 -33.1858 -14.9662 0.767016 69.871 -6.27518 -3.1132 21.0227 1.94705 3.74934 0.683177 8.75949 -90.1009 9.35686 1.31706 -0.298345 -2.31347 1.30264 -0.356035 -24.854 1.34582 0.11135 -4.84132 1.34581 0.111346 90.2607 -29.3728 -106.486 26.4349 13.9193 -10.4588 -5.36609 -42.9476 -5.49157 -21.4038 1.79356 -15.013 -86.2823 -53.4467 84.8144 -17.6307 -16.2975 -9.12487 2.86477 23.5774 -3.93878 0.713815 -0.0984109 -4.76324 -3.64083 -0.707688 -1.18794 -7.71258 -0.548526 -0.599754 
-25.2551 95.1021 67.7597 69.9238 34.8868 99.9275 -175.876 41.4407 88.5662 -35.1717 6.62313 -1.75367 72.1304 8.19529 -1.73497 18.4248 -11.8933 10.0363 174.519 41.4403 92.4842 -38.4707 -16.2855 2.2752 70.8861 -7.33193 -3.41476 20.5258 1.95104 4.26654 0.72352 9.14143 -90.1273 8.59333 1.38735 -0.340187 -3.07693 1.37102 -0.400934 -25.618 1.42544 0.0925831 -5.60537 1.42543 0.0925686 89.0383 -26.7479 -110.064 23.339 14.9448 -18.8643 -5.23894 -41.0631 -5.41548 -21.162 1.23734 -12.0702 -87.7519 -51.0569 82.2827 -19.4983 -15.3074 -25.1602 3.12796 30.9533 -4.19418 3.73088 0.0434692 -1.86884 1.24993 -0.770294 0.155429 -6.14631 -0.729396 -1.05224 
-27.0278 91.9161 69.3815 65.3218 34.0187 102.524 -172.449 51.5855 87.6367 -44.4332 9.80194 -3.42422 76.1317 10.772 -1.6295 18.1052 -13.5733 12.1185 171.351 51.751 94.4273 -47.489 -17.7524 3.47671 73.3365 -9.47832 -3.78583 20.1625 1.8773 4.83716 0.709356 9.50691 -90.1073 7.86189 1.36926 -0.285793 -3.8084 1.35534 -0.345801 -26.3493 1.39182 0.139019 -6.33667 1.39183 0.139012 88.0984 -25.5278 -112.59 20.0373 16.6744 -29.3044 -5.02664 -37.7724 -5.29844 -22.9629 1.28281 -11.7247 -88.5354 -46.2097 80.1674 -21.3029 -13.6508 -42.4353 3.2407 33.6421 -4.30483 1.57445 -0.0445533 -3.96358 5.64856 -0.622898 0.303631 -5.16127 -0.650462 -0.6489 
-28.7348 87.5029 70.7978 62.1209 33.3817 105.009 -164.641 61.993 83.7337 -55.8295 14.4918 -4.84619 80.1254 13.7437 -1.48202 16.2029 -15.2115 12.4809 162.832 61.347 100.505 -58.1408 -20.5639 4.95118 76.1203 -11.7702 -3.42721 19.8607 1.96737 4.9105 0.822722 9.81434 -90.2205 7.24861 1.54794 -0.506216 -4.42156 1.52414 -0.573886 -26.9641 1.6285 -0.0174768 -6.95145 1.62849 -0.0174893 87.8984 -25.0489 -113.253 18.635 17.6776 -39.5987 -4.66052 -31.2046 -5.12671 -26.3872 1.48931 -11.7142 -89.6603 -42.4571 77.5291 -21.8153 -12.3428 -58.6589 3.2416 33.6493 -4.30769 5.35311 -0.432867 -9.43693 7.50118 -1.58877 -0.722384 -3.05716 -1.41766 0.550401 
-30.0161 81.677 71.6016 61.979 33.0234 105.662 -145.965 69.659 71.2469 -68.7956 21.973 -6.03851 81.5542 15.9597 1.07425 16.2071 -11.6128 7.40444 145.894 67.8794 113.63 -70.9335 -25.1092 5.43425 79.3549 -14.9423 -4.10191 19.01 1.51053 6.92645 0.89314 10.1762 -90.3488 6.52615 1.63579 -0.745776 -5.14402 1.60139 -0.81706 -27.6871 1.78427 -0.219535 -7.67443 1.78427 -0.219549 87.0059 -22.8035 -116.375 17.5563 18.6821 -45.6441 -4.42761 -26.7749 -5.03411 -25.7571 1.24733 -10.823 -89.5385 -36.8494 76.2711 -23.0574 -9.75009 -70.9858 3.11902 30.7317 -4.18457 10.2252 -0.793418 -10.7673 8.09414 -2.06785 -0.810241 -1.15408 -1.84796 0.827517 
